<svg id="Слой_1" data-name="Слой 1" xmlns="http://www.w3.org/2000/svg" xmlns:xlink="http://www.w3.org/1999/xlink" viewBox="0 0 2694.18 2694.18"><defs><style>.cls-1{fill:none;}.cls-2{clip-path:url(#clip-path);}.cls-3{fill:url(#Безымянный_градиент_103);}.cls-4{fill:url(#Безымянный_градиент_151);}.cls-5{fill:url(#Безымянный_градиент_103-2);}.cls-6{fill:#303849;}</style><clipPath id="clip-path"><path class="cls-1" d="M52.19,1249.64c-33.48,21.15,78.35,361.88,192.2,358.11,137.59-4.56,221.36-510.36,191.31-521.17-22.06-7.93-94.09,254.87-224.08,258.72C126.28,1347.83,72.06,1237.08,52.19,1249.64Z"/></clipPath><linearGradient id="Безымянный_градиент_103" x1="384.78" y1="1057.13" x2="106.43" y2="1539.25" gradientUnits="userSpaceOnUse"><stop offset="0" stop-color="#22e1ff"/><stop offset="0.51" stop-color="#1d8fe1"/><stop offset="1" stop-color="#6f86d6"/></linearGradient><linearGradient id="Безымянный_градиент_151" x1="15.87" y1="1427.09" x2="472.09" y2="1427.09" gradientUnits="userSpaceOnUse"><stop offset="0" stop-color="#0acffe"/><stop offset="1" stop-color="#495aff"/></linearGradient><linearGradient id="Безымянный_градиент_103-2" x1="272.29" y1="1146.84" x2="150.48" y2="1217.17" xlink:href="#Безымянный_градиент_103"/></defs><title>logo3</title><g class="cls-2"><path class="cls-3" d="M52.19,1249.64c-33.48,21.15,78.35,361.88,192.2,358.11,137.59-4.56,221.36-510.36,191.31-521.17-22.06-7.93-94.09,254.87-224.08,258.72C126.28,1347.83,72.06,1237.08,52.19,1249.64Z"/><path class="cls-4" d="M22.81,1329.64c-38.6,21.15,90.36,361.88,221.65,358.11,158.66-4.56,255.25-510.36,220.6-521.17-25.43-7.93-108.49,254.87-258.4,258.72C108.25,1427.83,45.73,1317.08,22.81,1329.64Z"/></g><circle class="cls-5" cx="211.39" cy="1182" r="70.32"/><path class="cls-6" d="M885.4,1297.84a107.8,107.8,0,0,1-18.33,18,109.23,109.23,0,0,1-20.69,12.51,103.27,103.27,0,0,1-22,7.31,110.13,110.13,0,0,1-22.42,2.35,107.87,107.87,0,0,1-41.38-7.93,105.66,105.66,0,0,1-33.69-21.8,103.91,103.91,0,0,1-22.79-32.7,101.47,101.47,0,0,1-.13-80.64,101.92,101.92,0,0,1,22.8-32.58,109.19,109.19,0,0,1,33.81-21.92,106.46,106.46,0,0,1,41.38-8.05q25.5,0,46.45,10.4a110,110,0,0,1,35.55,27.75L858,1197q-11.13-15.1-25-21.68a71.4,71.4,0,0,0-30.92-6.56,67.47,67.47,0,0,0-26.46,5.2,69.21,69.21,0,0,0-21.65,14.24,67.13,67.13,0,0,0-14.59,21.06,65.16,65.16,0,0,0,0,51.53,68.21,68.21,0,0,0,36.22,35.55,67.39,67.39,0,0,0,26.45,5.2,64.8,64.8,0,0,0,25.21-5,77.69,77.69,0,0,0,21.26-13.13v-19.08H807.86v-32.7H885.4Z"/><path class="cls-6" d="M959.72,1334.25h-38.4V1136.31h38.4Z"/><path class="cls-6" d="M1135.37,1282.23a48.23,48.23,0,0,1-4.83,21.18,55.8,55.8,0,0,1-13.51,17.71,66.87,66.87,0,0,1-20.56,12.27,72.58,72.58,0,0,1-26.26,4.58,161.53,161.53,0,0,1-23.16-1.49,99.9,99.9,0,0,1-19.33-4.7,93.2,93.2,0,0,1-17.34-8.3,163.52,163.52,0,0,1-17.21-12.27l27.25-27.49q11.88,9.9,23.28,14a72.79,72.79,0,0,0,24.78,4.09,32.13,32.13,0,0,0,10.28-1.61,29,29,0,0,0,8.42-4.33,21.3,21.3,0,0,0,5.7-6.45,16.31,16.31,0,0,0,2.11-8.17,19.74,19.74,0,0,0-1.74-8.42,20.46,20.46,0,0,0-6.19-7.19,63.09,63.09,0,0,0-12.39-7.06q-7.93-3.58-20.31-8a190.86,190.86,0,0,1-20.94-9,73.36,73.36,0,0,1-17.59-12.27,56.35,56.35,0,0,1-12.14-16.84q-4.58-9.66-4.58-22.8a53.32,53.32,0,0,1,5.08-23.28,54.83,54.83,0,0,1,13.87-18.21,64.56,64.56,0,0,1,20.57-11.77,74.7,74.7,0,0,1,25.39-4.21q22.79,0,38.4,6a83.56,83.56,0,0,1,27.74,17.34l-26.75,27a53.52,53.52,0,0,0-16.6-11q-9.16-3.84-21.55-3.84a31.1,31.1,0,0,0-10.53,1.73,27.94,27.94,0,0,0-8.3,4.58,22.76,22.76,0,0,0-5.58,6.69,16.59,16.59,0,0,0-2.1,8,18.38,18.38,0,0,0,2,8.55,22.85,22.85,0,0,0,6.69,7.43,66.66,66.66,0,0,0,12.51,7.19q7.8,3.59,19.45,7.8a149,149,0,0,1,25.52,11.4,71.64,71.64,0,0,1,17.34,13.62,48.6,48.6,0,0,1,9.91,16.73A63.83,63.83,0,0,1,1135.37,1282.23Z"/><path class="cls-6" d="M1285.25,1166h-37.17v-37.16h37.17Zm-.5,168.21h-36.17V1190.81h36.17Z"/><path class="cls-6" d="M1454,1334.25h-35.67v-85.47a35.88,35.88,0,0,0-2.36-13.5,27.65,27.65,0,0,0-6.35-9.66,25.54,25.54,0,0,0-9.08-5.7,30.59,30.59,0,0,0-10.57-1.85,47.82,47.82,0,0,0-16.17,2.84,40.4,40.4,0,0,0-14.43,9v104.29h-35.68V1191.06h35.68l.25,10.65a38.52,38.52,0,0,1,7.92-5.94,60.93,60.93,0,0,1,9.79-4.58,64.09,64.09,0,0,1,10.41-2.85,56.09,56.09,0,0,1,10.28-1,63.68,63.68,0,0,1,20.93,3.46,50.54,50.54,0,0,1,17.84,10.66,51.55,51.55,0,0,1,12.51,18.58q4.7,11.4,4.7,27Z"/><path class="cls-6" d="M1567.17,1331a41.48,41.48,0,0,1-12.64,5.21,61.37,61.37,0,0,1-14.37,1.73q-12.63,0-21.3-3.1a30.52,30.52,0,0,1-13.87-9.53,40.58,40.58,0,0,1-7.56-16.36,101.52,101.52,0,0,1-2.35-23.28V1223h-18.83v-16.1a66.81,66.81,0,0,0,28.12-21.31q10.77-14.11,14.74-36.66h11.64v41.86h36.17V1223h-36.17v65.15a24.64,24.64,0,0,0,1.36,8.92,13.89,13.89,0,0,0,3.6,5.45,12.06,12.06,0,0,0,5.07,2.73,24.21,24.21,0,0,0,6.07.74,43,43,0,0,0,10.16-1.48,25.5,25.5,0,0,0,10.16-5Z"/><path class="cls-6" d="M1742.32,1262.41c0,2.32-.13,4.71-.37,7.18s-.54,5-.87,7.68H1626.62a49.15,49.15,0,0,0,5.58,11.77,38.91,38.91,0,0,0,8.79,9.66,41.55,41.55,0,0,0,11.77,6.45,42.68,42.68,0,0,0,14.49,2.35,58.79,58.79,0,0,0,19.33-3.35,47.39,47.39,0,0,0,16.1-9l22.54,22.55q-14.85,11.14-29.1,15.73A97.9,97.9,0,0,1,1666,1338a77.06,77.06,0,0,1-54.38-22,75,75,0,0,1-16.23-23.9,75.41,75.41,0,0,1,0-58.72,74.13,74.13,0,0,1,16.35-23.91,78.86,78.86,0,0,1,24.28-16.1,74.74,74.74,0,0,1,29.73-5.94,77,77,0,0,1,29,5.57,78.94,78.94,0,0,1,24.53,15.48,72.38,72.38,0,0,1,23,54Zm-37.41-13.87a43,43,0,0,0-15-21.93,39,39,0,0,0-24.4-8.3,38.1,38.1,0,0,0-24,8.3,43.29,43.29,0,0,0-14.87,21.93Z"/><path class="cls-6" d="M1873.62,1205.93l-19.08,30.22a65.83,65.83,0,0,0-11.52-10,22.37,22.37,0,0,0-12.75-4.34,20.83,20.83,0,0,0-7.56,1.61,21.89,21.89,0,0,0-7.68,5.33,30.31,30.31,0,0,0-6.07,9.78,39.86,39.86,0,0,0-2.48,15v80.76h-35.67V1191.06h35.67v15.36a51.39,51.39,0,0,1,14.25-14.12,31.9,31.9,0,0,1,17.46-5,37.33,37.33,0,0,1,18.46,5.07A71.47,71.47,0,0,1,1873.62,1205.93Z"/><path class="cls-6" d="M1972.46,1161.33a46.89,46.89,0,0,0-9.16-2.6,56.82,56.82,0,0,0-8.67-.62q-10.41,0-14.74,4.71t-4.34,17.09v11.4h22.55v31.21h-22.55v111.73h-35.67V1222.52h-17.34v-31.21h17.34v-10.9q0-27,10.1-41.13t35.48-14.12a101.68,101.68,0,0,1,27,3.47Z"/><path class="cls-6" d="M2105.74,1334.25h-35.67v-7.68a59,59,0,0,1-19.94,8.92,94.46,94.46,0,0,1-21.68,2.48,54.09,54.09,0,0,1-18.83-3.1A42.2,42.2,0,0,1,1995,1326a39.88,39.88,0,0,1-9.54-13.74,44.84,44.84,0,0,1-3.35-17.59,41,41,0,0,1,5.33-21.19,46.09,46.09,0,0,1,14.49-15.11,67.24,67.24,0,0,1,21.43-9,111.92,111.92,0,0,1,26.39-3h20.56q0-12.64-8.18-20.07t-23.53-7.43a47.26,47.26,0,0,0-15.36,2.72,46.58,46.58,0,0,0-15.86,9.91l-21.06-21.3a80.83,80.83,0,0,1,26.39-16.85,83,83,0,0,1,30.84-5.94,70.12,70.12,0,0,1,26.47,4.7,54.34,54.34,0,0,1,31.9,33.2q3.81,11.64,3.81,29.73Zm-35.67-35.67v-26.51h-16.35a94.05,94.05,0,0,0-14,1,39.26,39.26,0,0,0-11.39,3.35,21,21,0,0,0-7.68,6.07,14.21,14.21,0,0,0-2.85,8.92,14.88,14.88,0,0,0,5.82,12.13q5.82,4.71,15,4.71a51.47,51.47,0,0,0,15.73-2.48A75.79,75.79,0,0,0,2070.07,1298.58Z"/><path class="cls-6" d="M2268.51,1312.7a71.23,71.23,0,0,1-26.26,18.83A82.58,82.58,0,0,1,2210,1338a76.71,76.71,0,0,1-29.47-5.7,72.69,72.69,0,0,1-40.19-39.64,75.77,75.77,0,0,1-5.9-30,74.37,74.37,0,0,1,5.9-29.61,76.26,76.26,0,0,1,16-23.9,73.32,73.32,0,0,1,23.94-16,76,76,0,0,1,29.72-5.82,82.41,82.41,0,0,1,31.09,5.94,68.57,68.57,0,0,1,25.64,18.09l-24,24.52a46.83,46.83,0,0,0-13.25-11.89q-7.81-4.71-18.95-4.71a35.69,35.69,0,0,0-15.49,3.47,43.74,43.74,0,0,0-12.88,9.29,43.15,43.15,0,0,0-8.8,13.75,45.17,45.17,0,0,0,8.68,47.44,41.2,41.2,0,0,0,12.88,9.29,36.33,36.33,0,0,0,15.61,3.47,37.5,37.5,0,0,0,19.32-5.08,41.16,41.16,0,0,0,13.87-13Z"/><path class="cls-6" d="M2440.19,1262.41c0,2.32-.13,4.71-.37,7.18s-.54,5-.87,7.68H2324.49a49.15,49.15,0,0,0,5.58,11.77,38.91,38.91,0,0,0,8.79,9.66,41.55,41.55,0,0,0,11.77,6.45,42.64,42.64,0,0,0,14.49,2.35,58.79,58.79,0,0,0,19.33-3.35,47.39,47.39,0,0,0,16.1-9l22.54,22.55q-14.87,11.14-29.11,15.73a97.86,97.86,0,0,1-30.1,4.58,77.06,77.06,0,0,1-54.37-22,75,75,0,0,1-16.23-23.9,75.41,75.41,0,0,1,0-58.72,74.13,74.13,0,0,1,16.35-23.91,78.86,78.86,0,0,1,24.28-16.1,74.74,74.74,0,0,1,29.73-5.94,77,77,0,0,1,29,5.57,79.06,79.06,0,0,1,24.53,15.48,72.48,72.48,0,0,1,23,54Zm-37.41-13.87a43,43,0,0,0-15-21.93,39,39,0,0,0-24.4-8.3,38.1,38.1,0,0,0-24,8.3,43.29,43.29,0,0,0-14.87,21.93Z"/><path class="cls-6" d="M2573.72,1294.12a36.19,36.19,0,0,1-5,19,45,45,0,0,1-12.91,13.88,59.58,59.58,0,0,1-17.88,8.42,70.86,70.86,0,0,1-19.61,2.85,74.09,74.09,0,0,1-30.17-6.07q-13.79-6.08-24.21-19.45l21.55-21.8a48.35,48.35,0,0,0,14.87,12.76,37.17,37.17,0,0,0,18.08,4.58q8.43,0,14-3.09a10,10,0,0,0,5.57-9.29q0-6.45-7.92-10.78t-22.3-8.55a104.62,104.62,0,0,1-16.35-6.32,59.75,59.75,0,0,1-14.12-9.41,44.77,44.77,0,0,1-9.91-12.76,35.59,35.59,0,0,1-3.72-16.6,36.41,36.41,0,0,1,4.85-18.7,44.12,44.12,0,0,1,12.66-13.88,60,60,0,0,1,17.75-8.54,69.88,69.88,0,0,1,20.12-3q32.76,0,53.63,24.77l-21.31,21.55a49.3,49.3,0,0,0-14.12-12.14,34.83,34.83,0,0,0-17.34-4.46,28.9,28.9,0,0,0-6.81.87,29.48,29.48,0,0,0-6.69,2.48,14.89,14.89,0,0,0-5.08,4.21,9.38,9.38,0,0,0-2,5.82q0,5.7,7.55,9.91t21.68,8.42a100.07,100.07,0,0,1,17.34,6.94,67.64,67.64,0,0,1,14.37,9.79,43.36,43.36,0,0,1,9.79,12.63A34.8,34.8,0,0,1,2573.72,1294.12Z"/><path class="cls-6" d="M775.14,1503.17c0,26.08-18.51,47.29-44.6,47.29H695v-94.59h35.54C756.63,1455.87,775.14,1477.09,775.14,1503.17Zm-7,0c0-22.44-15.27-40.54-37.57-40.54H702.17v81.08h28.37C752.84,1543.71,768.11,1525.6,768.11,1503.17Z"/><path class="cls-6" d="M862.43,1517c0,1.08-.13,2.16-.13,3.24H801.08c1.62,15.27,13.24,25.27,28.65,25.27,11.08,0,19.46-5.13,23.38-12.29l5.94,3.51c-5.54,9.19-16.08,15.27-29.46,15.27-20.81,0-35.54-14.87-35.54-35.27,0-19.86,14.33-35.27,35-35.27S862.43,1498.44,862.43,1517Zm-61.35-3.38H855.4c-1.48-16.48-13.1-25.67-26.35-25.67C813.65,1487.9,802.43,1498.57,801.08,1513.57Z"/><path class="cls-6" d="M927.83,1532.76c0,11.08-9.73,19.19-24.18,19.19-13.52,0-22.44-6.35-25.68-15l5.81-3.38c2.43,7.3,9.73,11.89,19.87,11.89,9.45,0,17.43-4.19,17.43-12.7,0-18.38-41-7.84-41-32.16,0-10.68,9.19-19.19,23-19.19,10.95,0,19.33,5.27,23,13.51l-5.68,3.25c-2.84-7-9.86-10.27-17.3-10.27-8.78,0-16.21,4.59-16.21,12.7C886.89,1518.71,927.83,1508,927.83,1532.76Z"/><path class="cls-6" d="M948.24,1461.14a5.41,5.41,0,1,1,5.4,5.41A5.39,5.39,0,0,1,948.24,1461.14Zm2,21.76H957v67.56h-6.75Z"/><path class="cls-6" d="M1051.34,1482.9v64.32c0,20.27-15,31.76-33.65,31.76-15.81,0-27-6.36-31.89-16.22l6-3.38c3.51,7.16,11.08,13.11,25.94,13.11,16.9,0,26.9-9.87,26.9-25.27v-12.43c-5.54,10.4-15.95,17.16-29.06,17.16a35.27,35.27,0,0,1,0-70.54c13.11,0,23.52,6.76,29.06,17.16V1482.9Zm-6.75,33.78a28.65,28.65,0,1,0-28.65,28.78A28.44,28.44,0,0,0,1044.59,1516.68Z"/><path class="cls-6" d="M1136.07,1508.44v42h-6.89v-42c0-12.44-7.17-20.54-19.87-20.54-13.24,0-23.65,8.64-23.65,26.89v35.67h-6.75V1482.9h6.75v12.83c5.14-10,13.79-14.32,24.19-14.32C1125.93,1481.41,1136.07,1492.09,1136.07,1508.44Z"/><path class="cls-6" d="M1216.47,1479.25v3.65h20.13v6.62h-20.13v60.94h-6.89v-60.94H1198v-6.62h11.62v-3.65c0-16.62,9.32-26.22,27-24.87v6.49C1222.82,1459.79,1216.47,1466.14,1216.47,1479.25Z"/><path class="cls-6" d="M1244.71,1516.68c0-20,15.81-35.27,35.54-35.27a35.27,35.27,0,1,1,0,70.54C1260.52,1552,1244.71,1536.68,1244.71,1516.68Zm64,0c0-16.08-12.43-28.78-28.51-28.78a28.78,28.78,0,0,0,0,57.56C1296.33,1545.46,1308.76,1532.76,1308.76,1516.68Z"/><path class="cls-6" d="M1368,1482v6.49c-11.62,0-22.57,7.16-22.57,24.46v37.56h-6.75V1482.9h6.75v13.24C1350,1485.46,1358.76,1482,1368,1482Z"/><path class="cls-6" d="M1502,1516.68a34.81,34.81,0,0,1-35,35.27c-13.11,0-23.51-6.76-29-17.16v15.67h-6.76v-94.59H1438v42.7c5.54-10.4,15.94-17.16,29-17.16A34.81,34.81,0,0,1,1502,1516.68Zm-6.76,0a28.65,28.65,0,1,0-28.65,28.78A28.44,28.44,0,0,0,1495.24,1516.68Z"/><path class="cls-6" d="M1580.51,1482.9v67.56h-6.76v-12.84c-5.13,10-13.78,14.33-24.19,14.33-16.08,0-26.21-10.68-26.21-27v-42h6.89v42c0,12.44,7.16,20.54,19.86,20.54,13.25,0,23.65-8.65,23.65-26.89V1482.9Z"/><path class="cls-6" d="M1653.61,1532.76c0,11.08-9.73,19.19-24.19,19.19-13.51,0-22.43-6.35-25.67-15l5.81-3.38c2.43,7.3,9.73,11.89,19.86,11.89,9.46,0,17.44-4.19,17.44-12.7,0-18.38-40.95-7.84-40.95-32.16,0-10.68,9.19-19.19,23-19.19,10.95,0,19.33,5.27,23,13.51l-5.68,3.25c-2.84-7-9.86-10.27-17.3-10.27-8.78,0-16.21,4.59-16.21,12.7C1612.67,1518.71,1653.61,1508,1653.61,1532.76Z"/><path class="cls-6" d="M1674,1461.14a5.41,5.41,0,1,1,5.4,5.41A5.39,5.39,0,0,1,1674,1461.14Zm2,21.76h6.76v67.56H1676Z"/><path class="cls-6" d="M1767.53,1508.44v42h-6.9v-42c0-12.44-7.16-20.54-19.86-20.54-13.24,0-23.65,8.64-23.65,26.89v35.67h-6.75V1482.9h6.75v12.83c5.14-10,13.79-14.32,24.19-14.32C1757.39,1481.41,1767.53,1492.09,1767.53,1508.44Z"/><path class="cls-6" d="M1857.12,1517c0,1.08-.14,2.16-.14,3.24h-61.21c1.62,15.27,13.24,25.27,28.65,25.27,11.08,0,19.45-5.13,23.37-12.29l6,3.51c-5.54,9.19-16.08,15.27-29.46,15.27-20.81,0-35.54-14.87-35.54-35.27,0-19.86,14.33-35.27,35-35.27S1857.12,1498.44,1857.12,1517Zm-61.35-3.38h54.32c-1.49-16.48-13.11-25.67-26.35-25.67C1808.33,1487.9,1797.12,1498.57,1795.77,1513.57Z"/><path class="cls-6" d="M1922.52,1532.76c0,11.08-9.73,19.19-24.19,19.19-13.51,0-22.43-6.35-25.67-15l5.81-3.38c2.43,7.3,9.73,11.89,19.86,11.89,9.46,0,17.43-4.19,17.43-12.7,0-18.38-40.94-7.84-40.94-32.16,0-10.68,9.19-19.19,23-19.19,11,0,19.32,5.27,23,13.51l-5.67,3.25c-2.84-7-9.87-10.27-17.3-10.27-8.78,0-16.21,4.59-16.21,12.7C1881.58,1518.71,1922.52,1508,1922.52,1532.76Z"/><path class="cls-6" d="M1987.11,1532.76c0,11.08-9.73,19.19-24.19,19.19-13.51,0-22.43-6.35-25.67-15l5.81-3.38c2.43,7.3,9.73,11.89,19.86,11.89,9.46,0,17.43-4.19,17.43-12.7,0-18.38-40.94-7.84-40.94-32.16,0-10.68,9.19-19.19,23-19.19,10.95,0,19.33,5.27,23,13.51l-5.67,3.25c-2.84-7-9.87-10.27-17.3-10.27-8.78,0-16.21,4.59-16.21,12.7C1946.17,1518.71,1987.11,1508,1987.11,1532.76Z"/></svg>