<svg id="Слой_1" data-name="Слой 1" xmlns="http://www.w3.org/2000/svg" xmlns:xlink="http://www.w3.org/1999/xlink" viewBox="0 0 2540.93 521.37"><defs><style>.cls-1{fill:none;}.cls-2{clip-path:url(#clip-path);}.cls-3{fill:url(#Безымянный_градиент_103);}.cls-4{fill:url(#Безымянный_градиент_151);}.cls-5{fill:url(#Безымянный_градиент_103-2);}.cls-6{fill:#fff;}</style><clipPath id="clip-path"><path class="cls-1" d="M6,163.23c-33.47,21.15,78.36,361.88,192.21,358.11C335.82,516.78,419.58,11,389.54.18,367.48-7.76,295.45,255,165.46,258.89,80.11,261.42,25.9,150.67,6,163.23Z"/></clipPath><linearGradient id="Безымянный_градиент_103" x1="338.62" y1="-29.28" x2="60.26" y2="452.85" gradientUnits="userSpaceOnUse"><stop offset="0" stop-color="#22e1ff"/><stop offset="0.51" stop-color="#1d8fe1"/><stop offset="1" stop-color="#6f86d6"/></linearGradient><linearGradient id="Безымянный_градиент_151" x1="-30.3" y1="340.69" x2="425.93" y2="340.69" gradientUnits="userSpaceOnUse"><stop offset="0" stop-color="#0acffe"/><stop offset="1" stop-color="#495aff"/></linearGradient><linearGradient id="Безымянный_градиент_103-2" x1="226.13" y1="60.43" x2="104.32" y2="130.76" xlink:href="#Безымянный_градиент_103"/></defs><title>Монтажная область 11</title><g class="cls-2"><path class="cls-3" d="M6,163.23c-33.47,21.15,78.36,361.88,192.21,358.11C335.82,516.78,419.58,11,389.54.18,367.48-7.76,295.45,255,165.46,258.89,80.11,261.42,25.9,150.67,6,163.23Z"/><path class="cls-4" d="M-23.35,243.23C-61.95,264.38,67,605.11,198.29,601.34,357,596.78,453.55,91,418.9,80.18,393.47,72.24,310.41,335,160.5,338.89,62.09,341.42-.43,230.67-23.35,243.23Z"/></g><circle class="cls-5" cx="165.22" cy="95.6" r="70.32"/><path class="cls-6" d="M839.24,211.43a107.42,107.42,0,0,1-18.33,18,109.23,109.23,0,0,1-20.69,12.51,102.61,102.61,0,0,1-22.05,7.31,109.35,109.35,0,0,1-22.42,2.35,108,108,0,0,1-41.37-7.92,105.58,105.58,0,0,1-33.69-21.81,103.68,103.68,0,0,1-22.79-32.7,101.36,101.36,0,0,1-.13-80.64,101.8,101.8,0,0,1,22.79-32.57A109.2,109.2,0,0,1,714.38,54a106.59,106.59,0,0,1,41.37-8.05q25.51,0,46.45,10.41a109.67,109.67,0,0,1,35.55,27.74l-26,26.51q-11.13-15.1-25-21.68a71.36,71.36,0,0,0-30.91-6.56,67.55,67.55,0,0,0-26.47,5.2,69.14,69.14,0,0,0-21.64,14.25,66.76,66.76,0,0,0-14.59,21,65,65,0,0,0,0,51.53,68.15,68.15,0,0,0,36.21,35.55,67.46,67.46,0,0,0,26.45,5.21,64.68,64.68,0,0,0,25.22-5,77.84,77.84,0,0,0,21.26-13.13V178H761.7V145.28h77.54Z"/><path class="cls-6" d="M913.56,247.85h-38.4V49.9h38.4Z"/><path class="cls-6" d="M1089.2,195.82a48.2,48.2,0,0,1-4.83,21.18,55.92,55.92,0,0,1-13.5,17.72A66.84,66.84,0,0,1,1050.31,247a72.58,72.58,0,0,1-26.26,4.58,163.09,163.09,0,0,1-23.16-1.48,99.9,99.9,0,0,1-19.33-4.71,92,92,0,0,1-17.34-8.3A163.43,163.43,0,0,1,947,224.81l27.25-27.5q11.89,9.91,23.29,14a73,73,0,0,0,24.77,4.08,32.19,32.19,0,0,0,10.29-1.61,28.85,28.85,0,0,0,8.42-4.33,21.38,21.38,0,0,0,5.7-6.44,16.36,16.36,0,0,0,2.1-8.18,19.8,19.8,0,0,0-1.73-8.42,20.4,20.4,0,0,0-6.2-7.19,63,63,0,0,0-12.38-7.06q-7.93-3.58-20.32-8a188.8,188.8,0,0,1-20.93-9,73.33,73.33,0,0,1-17.59-12.26A56.22,56.22,0,0,1,957.53,126q-4.59-9.66-4.58-22.79A53.34,53.34,0,0,1,958,79.88,54.83,54.83,0,0,1,971.9,61.67,64.8,64.8,0,0,1,992.46,49.9a75,75,0,0,1,25.39-4.21q22.8,0,38.4,6A83.66,83.66,0,0,1,1084,69l-26.75,27a53.7,53.7,0,0,0-16.6-11q-9.18-3.84-21.56-3.84a31.14,31.14,0,0,0-10.53,1.73,27.68,27.68,0,0,0-8.29,4.59,22.61,22.61,0,0,0-5.58,6.69,16.54,16.54,0,0,0-2.1,8.05,18.19,18.19,0,0,0,2,8.54,22.87,22.87,0,0,0,6.69,7.44,66.59,66.59,0,0,0,12.51,7.18q7.8,3.6,19.44,7.8a148.68,148.68,0,0,1,25.52,11.4,71.22,71.22,0,0,1,17.34,13.63,48.56,48.56,0,0,1,9.91,16.72A63.56,63.56,0,0,1,1089.2,195.82Z"/><path class="cls-6" d="M1239.08,79.63h-37.16V42.47h37.16Zm-.49,168.22h-36.17V104.41h36.17Z"/><path class="cls-6" d="M1407.79,247.85h-35.67V162.38a35.61,35.61,0,0,0-2.37-13.5,27.76,27.76,0,0,0-6.34-9.67,25.69,25.69,0,0,0-9.08-5.69,30.64,30.64,0,0,0-10.57-1.86,47.69,47.69,0,0,0-16.18,2.85,40.33,40.33,0,0,0-14.42,9v104.3h-35.68V104.65h35.68l.24,10.66a38.26,38.26,0,0,1,7.93-6,62.7,62.7,0,0,1,9.79-4.58,64.25,64.25,0,0,1,10.4-2.85,56.26,56.26,0,0,1,10.28-1,63.71,63.71,0,0,1,20.94,3.47,50.24,50.24,0,0,1,17.83,10.65,51.43,51.43,0,0,1,12.51,18.58q4.71,11.4,4.71,27Z"/><path class="cls-6" d="M1521,244.63a41.55,41.55,0,0,1-12.63,5.2,61.37,61.37,0,0,1-14.37,1.73q-12.63,0-21.3-3.09a30.57,30.57,0,0,1-13.88-9.54,40.33,40.33,0,0,1-7.55-16.35,101.07,101.07,0,0,1-2.36-23.29V136.61h-18.83v-16.1A66.67,66.67,0,0,0,1458.2,99.2q10.79-14.11,14.74-36.66h11.65v41.87h36.17v32.2h-36.17v65.16a24.68,24.68,0,0,0,1.36,8.92,14.05,14.05,0,0,0,3.59,5.45,12.14,12.14,0,0,0,5.08,2.72,23.75,23.75,0,0,0,6.07.75,43.1,43.1,0,0,0,10.16-1.49,25.32,25.32,0,0,0,10.15-5Z"/><path class="cls-6" d="M1696.16,176a71.66,71.66,0,0,1-.38,7.19c-.24,2.47-.53,5-.86,7.68H1580.46a49.08,49.08,0,0,0,5.58,11.76,39.13,39.13,0,0,0,8.79,9.67,41.77,41.77,0,0,0,11.77,6.44,42.6,42.6,0,0,0,14.49,2.35,58.71,58.71,0,0,0,19.32-3.34,47.19,47.19,0,0,0,16.11-9.05l22.54,22.55Q1664.2,242.4,1650,247a97.86,97.86,0,0,1-30.1,4.58,76.22,76.22,0,0,1-30.1-5.94,77.06,77.06,0,0,1-24.28-16.1,75.34,75.34,0,0,1-16.22-23.91,75.41,75.41,0,0,1,0-58.72A74.09,74.09,0,0,1,1565.6,123a78.82,78.82,0,0,1,24.28-16.11,74.65,74.65,0,0,1,29.72-5.94,77.16,77.16,0,0,1,29,5.57A78.9,78.9,0,0,1,1673.12,122a72.48,72.48,0,0,1,23,54Zm-37.41-13.87a43,43,0,0,0-15-21.93,39,39,0,0,0-24.4-8.29,38.09,38.09,0,0,0-24,8.29,43.23,43.23,0,0,0-14.87,21.93Z"/><path class="cls-6" d="M1827.46,119.52l-19.08,30.22a67,67,0,0,0-11.52-10,22.39,22.39,0,0,0-12.76-4.34,20.78,20.78,0,0,0-7.55,1.61,21.89,21.89,0,0,0-7.68,5.33,30.36,30.36,0,0,0-6.07,9.79,39.61,39.61,0,0,0-2.48,15v80.77h-35.68V104.65h35.68V120a51.5,51.5,0,0,1,14.24-14.12,32,32,0,0,1,17.47-5,37.24,37.24,0,0,1,18.46,5.08A71.62,71.62,0,0,1,1827.46,119.52Z"/><path class="cls-6" d="M1926.3,74.93a47.39,47.39,0,0,0-9.16-2.61,56.86,56.86,0,0,0-8.68-.62q-10.39,0-14.74,4.71t-4.33,17.1V104.9h22.54v31.22h-22.54V247.85h-35.68V136.12h-17.34V104.9h17.34V94q0-27,10.11-41.12t35.48-14.12a101.73,101.73,0,0,1,27,3.46Z"/><path class="cls-6" d="M2059.58,247.85h-35.67v-7.68a59.19,59.19,0,0,1-20,8.92,94.37,94.37,0,0,1-21.67,2.47,54.33,54.33,0,0,1-18.83-3.09,42.55,42.55,0,0,1-14.62-8.92,39.92,39.92,0,0,1-9.54-13.75,44.8,44.8,0,0,1-3.34-17.59q0-12.14,5.33-21.18a45.9,45.9,0,0,1,14.49-15.11,67.16,67.16,0,0,1,21.43-9,111.83,111.83,0,0,1,26.38-3h20.56q0-12.63-8.17-20.07t-23.54-7.43a47.11,47.11,0,0,0-15.36,2.73,46.54,46.54,0,0,0-15.85,9.91l-21.06-21.31a81,81,0,0,1,26.39-16.85,83,83,0,0,1,30.84-5.94,69.92,69.92,0,0,1,26.47,4.71,54.29,54.29,0,0,1,31.9,33.19q3.81,11.66,3.81,29.73Zm-35.67-35.68V185.66h-16.35a93.81,93.81,0,0,0-14,1,39.33,39.33,0,0,0-11.4,3.34,21.11,21.11,0,0,0-7.68,6.07,14.23,14.23,0,0,0-2.85,8.92,14.9,14.9,0,0,0,5.83,12.14q5.8,4.71,15,4.7a51.82,51.82,0,0,0,15.74-2.47A75.85,75.85,0,0,0,2023.91,212.17Z"/><path class="cls-6" d="M2222.34,226.29a71.14,71.14,0,0,1-26.26,18.83,82.32,82.32,0,0,1-32.2,6.44,76.89,76.89,0,0,1-29.47-5.69,74.18,74.18,0,0,1-24.08-15.74,73.42,73.42,0,0,1-16.11-23.9,75.68,75.68,0,0,1-5.9-30,74.11,74.11,0,0,1,5.9-29.6,76.33,76.33,0,0,1,16-23.91,73.47,73.47,0,0,1,23.95-16,76,76,0,0,1,29.72-5.82,82.41,82.41,0,0,1,31.09,5.94A68.77,68.77,0,0,1,2220.61,125l-24,24.52a47,47,0,0,0-13.26-11.89q-7.8-4.69-19-4.7a35.54,35.54,0,0,0-15.48,3.47,43,43,0,0,0-21.68,23,45.22,45.22,0,0,0,8.67,47.45,41.48,41.48,0,0,0,12.88,9.29,36.54,36.54,0,0,0,15.61,3.47,37.63,37.63,0,0,0,19.33-5.08,41.28,41.28,0,0,0,13.87-13Z"/><path class="cls-6" d="M2394,176a71.58,71.58,0,0,1-.37,7.19c-.24,2.47-.54,5-.86,7.68H2278.33a49.43,49.43,0,0,0,5.57,11.76,39.36,39.36,0,0,0,8.8,9.67,41.77,41.77,0,0,0,11.77,6.44,42.6,42.6,0,0,0,14.49,2.35,58.71,58.71,0,0,0,19.32-3.34,47.28,47.28,0,0,0,16.11-9.05l22.54,22.55q-14.86,11.15-29.11,15.73a97.86,97.86,0,0,1-30.1,4.58,76.22,76.22,0,0,1-30.1-5.94,77.06,77.06,0,0,1-24.28-16.1,75.34,75.34,0,0,1-16.22-23.91,75.41,75.41,0,0,1,0-58.72,74.09,74.09,0,0,1,16.35-23.9,78.9,78.9,0,0,1,24.27-16.11,74.74,74.74,0,0,1,29.73-5.94,77.16,77.16,0,0,1,29,5.57A78.74,78.74,0,0,1,2371,122a72.38,72.38,0,0,1,23,54Zm-37.4-13.87a43,43,0,0,0-15-21.93,39,39,0,0,0-24.4-8.29,38.12,38.12,0,0,0-24,8.29,43.27,43.27,0,0,0-14.86,21.93Z"/><path class="cls-6" d="M2527.56,207.71a36.23,36.23,0,0,1-5,19,45.12,45.12,0,0,1-12.91,13.87A59.1,59.1,0,0,1,2491.8,249a70.86,70.86,0,0,1-19.61,2.85,73.92,73.92,0,0,1-30.17-6.07q-13.79-6.06-24.21-19.45l21.55-21.8a48.18,48.18,0,0,0,14.86,12.76,37.24,37.24,0,0,0,18.09,4.58c5.61,0,10.28-1,14-3.09a10,10,0,0,0,5.57-9.29q0-6.44-7.93-10.78t-22.29-8.55a104.58,104.58,0,0,1-16.35-6.31,60,60,0,0,1-14.13-9.42,44.46,44.46,0,0,1-9.9-12.76,35.55,35.55,0,0,1-3.72-16.59,36.44,36.44,0,0,1,4.84-18.71,44.21,44.21,0,0,1,12.66-13.87,59.93,59.93,0,0,1,17.76-8.55,69.81,69.81,0,0,1,20.11-3q32.78,0,53.63,24.77l-21.3,21.56a49,49,0,0,0-14.12-12.14,34.72,34.72,0,0,0-17.34-4.46,29.55,29.55,0,0,0-6.82.86,30.33,30.33,0,0,0-6.69,2.48,15.06,15.06,0,0,0-5.07,4.21,9.35,9.35,0,0,0-2,5.82q0,5.72,7.56,9.91t21.68,8.43a100.85,100.85,0,0,1,17.34,6.93,67.64,67.64,0,0,1,14.37,9.79,43.58,43.58,0,0,1,9.78,12.63A34.7,34.7,0,0,1,2527.56,207.71Z"/><path class="cls-6" d="M684.38,369.46q19.32,0,32,13.72T729,416.76q0,19.86-12.63,33.58t-32,13.72H648.84v-94.6Zm0,87.84q16.49,0,27-11.69T722,416.76q0-17.16-10.54-28.85t-27-11.69H656V457.3Z"/><path class="cls-6" d="M782.89,395q14.86,0,24.12,10.54a36.65,36.65,0,0,1,9.26,25c0,.36,0,.91-.07,1.62s-.07,1.27-.07,1.63H754.92q1.22,11.34,9.12,18.31t19.52,7a28.75,28.75,0,0,0,14.19-3.38,23,23,0,0,0,9.19-8.92l5.95,3.51A30,30,0,0,1,801,461.42a36.67,36.67,0,0,1-17.57,4.12q-15.54,0-25.54-9.93t-10-25.34q0-15.13,9.8-25.2T782.89,395Zm0,6.49q-11.49,0-19.19,7.16a28,28,0,0,0-8.78,18.51h54.32q-1.08-12-8.58-18.85A25.57,25.57,0,0,0,782.89,401.49Z"/><path class="cls-6" d="M840.73,414.19a9,9,0,0,0,4.18,7.84,30.75,30.75,0,0,0,10.27,4.26q6.09,1.41,12.1,3.17a23.72,23.72,0,0,1,10.2,5.88q4.18,4.13,4.19,11A17,17,0,0,1,875,460.14q-6.69,5.4-17.5,5.4-9.72,0-16.42-4.12a21.61,21.61,0,0,1-9.25-10.88l5.81-3.38a16,16,0,0,0,7.09,8.72,24.07,24.07,0,0,0,12.77,3.18q7.57,0,12.5-3.32a10.63,10.63,0,0,0,4.93-9.39,9.28,9.28,0,0,0-4.19-8A29,29,0,0,0,860.45,434c-4.05-.95-8.08-2-12.09-3.18a24,24,0,0,1-10.2-5.81q-4.2-4-4.19-10.81a17.36,17.36,0,0,1,6.42-13.65q6.42-5.54,16.55-5.54a26.7,26.7,0,0,1,14.12,3.65,22,22,0,0,1,8.85,9.87l-5.67,3.24a15,15,0,0,0-6.76-7.64,21.35,21.35,0,0,0-10.54-2.63,18.89,18.89,0,0,0-11.55,3.45A10.91,10.91,0,0,0,840.73,414.19Z"/><path class="cls-6" d="M911.26,378.59a5.38,5.38,0,0,1-7.56,0,5.14,5.14,0,0,1-1.63-3.86A5,5,0,0,1,903.7,371a5.36,5.36,0,0,1,7.56,0,5,5,0,0,1,1.63,3.71A5.14,5.14,0,0,1,911.26,378.59Zm-7.16,85.47V396.49h6.76v67.57Z"/><path class="cls-6" d="M998.42,396.49h6.76v64.32q0,14.73-9.6,23.24t-24.05,8.52q-11.62,0-19.86-4.33a26.88,26.88,0,0,1-12-11.89l6-3.38q6.48,13.11,25.94,13.11,12.57,0,19.73-6.82t7.16-18.45V448.38A31.39,31.39,0,0,1,986.6,461a32.8,32.8,0,0,1-17.23,4.59,35.27,35.27,0,0,1,0-70.54,32.81,32.81,0,0,1,17.23,4.6,31.39,31.39,0,0,1,11.82,12.57Zm-49,54.19a28.86,28.86,0,0,0,40.67,0,29.21,29.21,0,0,0,0-40.81,28.86,28.86,0,0,0-40.67,0,29.21,29.21,0,0,0,0,40.81Z"/><path class="cls-6" d="M1063.69,395q12,0,19.12,7.37T1089.9,422v42H1083V422q0-9.45-5.2-15t-14.66-5.54q-10.41,0-17,6.89t-6.62,20v35.68h-6.76V396.49h6.76v12.84Q1046.8,395,1063.69,395Z"/><path class="cls-6" d="M1190.44,374.46q-20.13-1.62-20.13,18.38v3.65h20.13v6.62h-20.13v60.95h-6.9V403.11h-11.62v-6.62h11.62v-3.65q0-12.7,7-19.25t20.07-5.61Z"/><path class="cls-6" d="M1234.09,465.54a34.52,34.52,0,0,1-25.2-10.2,35.55,35.55,0,0,1,0-50.13,36,36,0,0,1,50.26,0,35.55,35.55,0,0,1,0,50.13A34.35,34.35,0,0,1,1234.09,465.54Zm-20.34-14.86a28.79,28.79,0,0,0,40.61,0,29.38,29.38,0,0,0,0-40.81,28.79,28.79,0,0,0-40.61,0,29.21,29.21,0,0,0,0,40.81Z"/><path class="cls-6" d="M1299.22,409.73q6.08-14.19,22.57-14.19V402a22.46,22.46,0,0,0-16.08,6.15q-6.49,6.15-6.49,18.31v37.57h-6.76V396.49h6.76Z"/><path class="cls-6" d="M1420.84,395a35.27,35.27,0,0,1,0,70.54,32.75,32.75,0,0,1-17.23-4.59,31.41,31.41,0,0,1-11.83-12.57v15.68H1385v-94.6h6.75v42.71a31.41,31.41,0,0,1,11.83-12.57A32.76,32.76,0,0,1,1420.84,395Zm-20.75,55.68a28.87,28.87,0,0,0,40.68,0,29.21,29.21,0,0,0,0-40.81,28.87,28.87,0,0,0-40.68,0,29.21,29.21,0,0,0,0,40.81Z"/><path class="cls-6" d="M1527.59,396.49h6.75v67.57h-6.75V451.22q-7.3,14.32-24.19,14.32-12,0-19.12-7.36t-7.1-19.66v-42h6.89v42q0,9.45,5.21,15t14.66,5.54q10.39,0,17-6.9t6.62-20Z"/><path class="cls-6" d="M1566.5,414.19a9,9,0,0,0,4.19,7.84,30.67,30.67,0,0,0,10.27,4.26q6.09,1.41,12.1,3.17a23.78,23.78,0,0,1,10.2,5.88q4.18,4.13,4.19,11a17,17,0,0,1-6.69,13.79q-6.69,5.4-17.5,5.4-9.73,0-16.42-4.12a21.61,21.61,0,0,1-9.25-10.88l5.81-3.38a16,16,0,0,0,7.09,8.72,24,24,0,0,0,12.77,3.18q7.56,0,12.5-3.32a10.63,10.63,0,0,0,4.93-9.39,9.3,9.3,0,0,0-4.19-8,29,29,0,0,0-10.27-4.39c-4-.95-8.08-2-12.09-3.18a24,24,0,0,1-10.2-5.81q-4.2-4-4.19-10.81a17.36,17.36,0,0,1,6.42-13.65q6.4-5.54,16.55-5.54a26.72,26.72,0,0,1,14.12,3.65,22,22,0,0,1,8.85,9.87l-5.67,3.24a15,15,0,0,0-6.76-7.64,21.38,21.38,0,0,0-10.54-2.63,18.87,18.87,0,0,0-11.55,3.45A10.91,10.91,0,0,0,1566.5,414.19Z"/><path class="cls-6" d="M1637,378.59a5.4,5.4,0,0,1-7.57,0,5.13,5.13,0,0,1-1.62-3.86,5,5,0,0,1,1.62-3.71,5.37,5.37,0,0,1,7.57,0,5,5,0,0,1,1.62,3.71A5.13,5.13,0,0,1,1637,378.59Zm-7.16,85.47V396.49h6.76v67.57Z"/><path class="cls-6" d="M1695.15,395q12,0,19.12,7.37t7.09,19.66v42h-6.89V422q0-9.45-5.2-15t-14.66-5.54q-10.41,0-17,6.89t-6.62,20v35.68h-6.76V396.49H1671v12.84Q1678.25,395,1695.15,395Z"/><path class="cls-6" d="M1777.58,395q14.85,0,24.12,10.54a36.64,36.64,0,0,1,9.25,25c0,.36,0,.91-.06,1.62s-.07,1.27-.07,1.63H1749.6q1.23,11.34,9.13,18.31t19.52,7a28.75,28.75,0,0,0,14.19-3.38,23.1,23.1,0,0,0,9.19-8.92l5.95,3.51a30,30,0,0,1-11.9,11.15,36.6,36.6,0,0,1-17.56,4.12q-15.54,0-25.54-9.93t-10-25.34q0-15.13,9.79-25.2T1777.58,395Zm0,6.49q-11.49,0-19.19,7.16a28,28,0,0,0-8.79,18.51h54.33q-1.1-12-8.58-18.85A25.57,25.57,0,0,0,1777.58,401.49Z"/><path class="cls-6" d="M1835.41,414.19a9,9,0,0,0,4.19,7.84,30.67,30.67,0,0,0,10.27,4.26q6.09,1.41,12.1,3.17a23.84,23.84,0,0,1,10.2,5.88q4.18,4.13,4.19,11a17,17,0,0,1-6.69,13.79q-6.69,5.4-17.5,5.4-9.74,0-16.42-4.12a21.63,21.63,0,0,1-9.26-10.88l5.81-3.38a16.05,16.05,0,0,0,7.1,8.72,24,24,0,0,0,12.77,3.18q7.56,0,12.5-3.32a10.63,10.63,0,0,0,4.93-9.39,9.3,9.3,0,0,0-4.19-8,29,29,0,0,0-10.27-4.39c-4.05-.95-8.09-2-12.09-3.18a24.1,24.1,0,0,1-10.21-5.81q-4.18-4-4.18-10.81a17.35,17.35,0,0,1,6.41-13.65q6.42-5.54,16.56-5.54a26.72,26.72,0,0,1,14.12,3.65,22,22,0,0,1,8.85,9.87l-5.68,3.24a15,15,0,0,0-6.75-7.64,21.38,21.38,0,0,0-10.54-2.63,18.9,18.9,0,0,0-11.56,3.45A10.93,10.93,0,0,0,1835.41,414.19Z"/><path class="cls-6" d="M1900,414.19a9,9,0,0,0,4.19,7.84,30.67,30.67,0,0,0,10.27,4.26q6.09,1.41,12.1,3.17a23.78,23.78,0,0,1,10.2,5.88q4.18,4.13,4.19,11a17,17,0,0,1-6.69,13.79q-6.69,5.4-17.5,5.4-9.73,0-16.42-4.12a21.63,21.63,0,0,1-9.26-10.88l5.81-3.38a16.1,16.1,0,0,0,7.1,8.72,24,24,0,0,0,12.77,3.18q7.56,0,12.5-3.32a10.63,10.63,0,0,0,4.93-9.39,9.3,9.3,0,0,0-4.19-8,29,29,0,0,0-10.27-4.39c-4-.95-8.09-2-12.09-3.18a24.1,24.1,0,0,1-10.21-5.81q-4.18-4-4.18-10.81a17.36,17.36,0,0,1,6.42-13.65q6.4-5.54,16.55-5.54a26.72,26.72,0,0,1,14.12,3.65,22,22,0,0,1,8.85,9.87l-5.67,3.24a15,15,0,0,0-6.76-7.64,21.38,21.38,0,0,0-10.54-2.63,18.9,18.9,0,0,0-11.56,3.45A10.93,10.93,0,0,0,1900,414.19Z"/></svg>