<svg id="Слой_1" data-name="Слой 1" xmlns="http://www.w3.org/2000/svg" xmlns:xlink="http://www.w3.org/1999/xlink" viewBox="0 0 2694.18 2694.18"><defs><style>.cls-1{fill:none;}.cls-2{fill:#303849;}.cls-3{clip-path:url(#clip-path);}.cls-4{fill:url(#Безымянный_градиент_103);}.cls-5{fill:url(#Безымянный_градиент_151);}.cls-6{fill:url(#Безымянный_градиент_103-2);}</style><clipPath id="clip-path"><path class="cls-1" d="M1090.07,733.84c-44.86,28.34,105,484.95,257.58,479.9C1532,1207.63,1644.28,529.82,1604,515.33c-29.55-10.64-126.08,341.54-300.28,346.7C1189.36,865.42,1116.71,717,1090.07,733.84Z"/></clipPath><linearGradient id="Безымянный_градиент_103" x1="1535.78" y1="475.86" x2="1162.76" y2="1121.95" gradientUnits="userSpaceOnUse"><stop offset="0" stop-color="#22e1ff"/><stop offset="0.51" stop-color="#1d8fe1"/><stop offset="1" stop-color="#6f86d6"/></linearGradient><linearGradient id="Безымянный_градиент_151" x1="1041.4" y1="971.64" x2="1652.79" y2="971.64" gradientUnits="userSpaceOnUse"><stop offset="0" stop-color="#0acffe"/><stop offset="1" stop-color="#495aff"/></linearGradient><linearGradient id="Безымянный_градиент_103-2" x1="1385.03" y1="596.08" x2="1221.8" y2="690.32" xlink:href="#Безымянный_градиент_103"/></defs><title>logo4</title><path class="cls-2" d="M344.23,1798.81a143.52,143.52,0,0,1-24.52,24A146.68,146.68,0,0,1,292,1839.57a137.32,137.32,0,0,1-29.49,9.77,146.39,146.39,0,0,1-30,3.15,144.51,144.51,0,0,1-55.34-10.6,141.47,141.47,0,0,1-45.07-29.16A138.91,138.91,0,0,1,101.67,1769a135.61,135.61,0,0,1-.17-107.86A136.09,136.09,0,0,1,132,1617.55a145.8,145.8,0,0,1,45.23-29.32,142.39,142.39,0,0,1,55.34-10.77q34.13,0,62.13,13.91a147.17,147.17,0,0,1,47.55,37.12l-34.74,35.45q-14.88-20.2-33.41-29t-41.35-8.78a90.35,90.35,0,0,0-35.4,7,92.16,92.16,0,0,0-29,19,89.59,89.59,0,0,0-19.52,28.17,87.06,87.06,0,0,0,0,68.92,91.2,91.2,0,0,0,48.44,47.55,90.25,90.25,0,0,0,35.38,7,86.64,86.64,0,0,0,33.73-6.63,103.73,103.73,0,0,0,28.43-17.56v-25.52H240.51v-43.74H344.23Z"/><path class="cls-2" d="M443.63,1847.52H392.27V1582.76h51.36Z"/><path class="cls-2" d="M678.57,1777.93a64.51,64.51,0,0,1-6.46,28.34A74.93,74.93,0,0,1,654.05,1830a89.65,89.65,0,0,1-27.5,16.4,96.92,96.92,0,0,1-35.13,6.13,217.19,217.19,0,0,1-31-2,133.68,133.68,0,0,1-25.85-6.29,124,124,0,0,1-23.19-11.1,218.77,218.77,0,0,1-23-16.41l36.45-36.78q15.9,13.26,31.15,18.72a97.25,97.25,0,0,0,33.13,5.47,43,43,0,0,0,13.75-2.15,38.93,38.93,0,0,0,11.27-5.8,28.24,28.24,0,0,0,7.62-8.62,21.76,21.76,0,0,0,2.82-10.93,26.43,26.43,0,0,0-2.32-11.27q-2.32-5-8.29-9.61a83.71,83.71,0,0,0-16.56-9.44q-10.62-4.8-27.18-10.77a253.72,253.72,0,0,1-28-12.1,97.87,97.87,0,0,1-23.52-16.4,75.17,75.17,0,0,1-16.24-22.53q-6.13-12.93-6.13-30.49a71.42,71.42,0,0,1,6.79-31.15,73.35,73.35,0,0,1,18.56-24.35,86.45,86.45,0,0,1,27.5-15.74,99.94,99.94,0,0,1,34-5.64q30.48,0,51.36,8a111.82,111.82,0,0,1,37.11,23.19l-35.79,36.12a71.49,71.49,0,0,0-22.2-14.74q-12.25-5.14-28.83-5.14a41.55,41.55,0,0,0-14.08,2.32,37,37,0,0,0-11.1,6.13,30.31,30.31,0,0,0-7.46,9,22,22,0,0,0-2.81,10.77,24.49,24.49,0,0,0,2.65,11.43q2.64,5.15,9,9.94a89.41,89.41,0,0,0,16.73,9.61q10.44,4.8,26,10.44a199,199,0,0,1,34.13,15.24,95.33,95.33,0,0,1,23.2,18.23,64.91,64.91,0,0,1,13.25,22.36A85.24,85.24,0,0,1,678.57,1777.93Z"/><path class="cls-2" d="M879,1622.52h-49.7v-49.7H879Zm-.66,225H830V1655.66h48.38Z"/><path class="cls-2" d="M1104.7,1847.52H1057V1733.2a47.7,47.7,0,0,0-3.17-18.06,36.83,36.83,0,0,0-8.48-12.92,34.17,34.17,0,0,0-12.15-7.63,41.11,41.11,0,0,0-14.14-2.48,63.78,63.78,0,0,0-21.63,3.81,54.09,54.09,0,0,0-19.3,12.09v139.51H930.4V1656h47.72l.33,14.25a51.08,51.08,0,0,1,10.61-8,82,82,0,0,1,13.09-6.13,86.48,86.48,0,0,1,13.91-3.82,75.46,75.46,0,0,1,13.76-1.32,85.22,85.22,0,0,1,28,4.64,67.2,67.2,0,0,1,23.85,14.25q10.44,9.61,16.74,24.85t6.29,36.12Z"/><path class="cls-2" d="M1256.13,1843.21a55.34,55.34,0,0,1-16.9,7,82,82,0,0,1-19.22,2.32q-16.89,0-28.49-4.14a40.83,40.83,0,0,1-18.56-12.76q-7-8.61-10.11-21.87t-3.14-31.15v-83.83h-25.19V1677.2a89.32,89.32,0,0,0,37.61-28.5q14.41-18.89,19.72-49h15.57v56h48.38v43.08h-48.38v87.15a32.94,32.94,0,0,0,1.83,11.93,18.64,18.64,0,0,0,4.8,7.29,16.21,16.21,0,0,0,6.79,3.64,32.2,32.2,0,0,0,8.12,1,57.69,57.69,0,0,0,13.59-2,33.92,33.92,0,0,0,13.58-6.63Z"/><path class="cls-2" d="M1490.41,1751.42q0,4.65-.5,9.61c-.33,3.32-.72,6.74-1.16,10.28H1335.66a66.28,66.28,0,0,0,7.46,15.74,52.45,52.45,0,0,0,11.76,12.92,55.64,55.64,0,0,0,15.74,8.61,56.78,56.78,0,0,0,19.39,3.15,78.6,78.6,0,0,0,25.84-4.47,63.09,63.09,0,0,0,21.54-12.1l30.16,30.16q-19.89,14.91-38.94,21a130.63,130.63,0,0,1-40.26,6.13,103.07,103.07,0,0,1-72.74-29.49,100.52,100.52,0,0,1-21.7-32,100.94,100.94,0,0,1,0-78.53,99.22,99.22,0,0,1,21.87-32,105.61,105.61,0,0,1,32.47-21.54,99.92,99.92,0,0,1,39.77-8,102.91,102.91,0,0,1,38.77,7.46,105.29,105.29,0,0,1,32.8,20.71,96.78,96.78,0,0,1,30.82,72.23Zm-50-18.55a57.35,57.35,0,0,0-20-29.33,52.13,52.13,0,0,0-32.64-11.1,51,51,0,0,0-32.15,11.1,57.81,57.81,0,0,0-19.88,29.33Z"/><path class="cls-2" d="M1666,1675.87l-25.51,40.43a89.36,89.36,0,0,0-15.41-13.42q-8.44-5.79-17.06-5.8a27.83,27.83,0,0,0-10.11,2.15,29.22,29.22,0,0,0-10.27,7.13,40.47,40.47,0,0,0-8.12,13.09q-3.32,8.11-3.32,20v108h-47.71V1656h47.71v20.54q8.63-12.26,19.06-18.88a42.65,42.65,0,0,1,23.36-6.63,50,50,0,0,1,24.69,6.79A95.57,95.57,0,0,1,1666,1675.87Z"/><path class="cls-2" d="M1798.25,1616.23a61.82,61.82,0,0,0-12.27-3.48,75.54,75.54,0,0,0-11.59-.83q-13.92,0-19.72,6.29t-5.8,22.87v15.24H1779v41.75h-30.16v149.45h-47.72V1698.07H1678v-41.75h23.19v-14.58q0-36.12,13.52-55t47.46-18.88a136.1,136.1,0,0,1,36.12,4.63Z"/><path class="cls-2" d="M1976.52,1847.52H1928.8v-10.27a79.21,79.21,0,0,1-26.67,11.93,126.8,126.8,0,0,1-29,3.31,72.56,72.56,0,0,1-25.18-4.14,56.68,56.68,0,0,1-19.55-11.93,53.33,53.33,0,0,1-12.76-18.39,60,60,0,0,1-4.47-23.53q0-16.23,7.12-28.33a61.54,61.54,0,0,1,19.38-20.21,89.84,89.84,0,0,1,28.67-12.1,149.52,149.52,0,0,1,35.29-4h27.5q0-16.89-10.93-26.84t-31.48-9.94a63.08,63.08,0,0,0-20.55,3.65q-10.61,3.64-21.2,13.25l-28.17-28.49a108.21,108.21,0,0,1,35.29-22.54,111,111,0,0,1,41.25-8q19.89,0,35.41,6.3t25.07,16.23a71.27,71.27,0,0,1,17.6,28.17q5.1,15.58,5.1,39.76Zm-47.72-47.72v-35.45h-21.87a125.94,125.94,0,0,0-18.72,1.32,52.69,52.69,0,0,0-15.24,4.48,28.28,28.28,0,0,0-10.28,8.11,19,19,0,0,0-3.81,11.93,19.93,19.93,0,0,0,7.79,16.24q7.78,6.3,20,6.3a69.15,69.15,0,0,0,21-3.32A100.8,100.8,0,0,0,1928.8,1799.8Z"/><path class="cls-2" d="M2194.22,1818.69a95.15,95.15,0,0,1-35.12,25.18,110.21,110.21,0,0,1-43.08,8.62,102.68,102.68,0,0,1-39.42-7.62,99.27,99.27,0,0,1-32.2-21,98.11,98.11,0,0,1-21.55-32,101.21,101.21,0,0,1-7.9-40.1,99.18,99.18,0,0,1,7.9-39.59,101.85,101.85,0,0,1,21.39-32,98,98,0,0,1,32-21.37A101.62,101.62,0,0,1,2116,1651a110.19,110.19,0,0,1,41.59,8,91.77,91.77,0,0,1,34.29,24.19L2159.76,1716a62.64,62.64,0,0,0-17.73-15.91q-10.44-6.29-25.35-6.29a47.72,47.72,0,0,0-20.71,4.63,58.32,58.32,0,0,0-17.23,12.43,57.43,57.43,0,0,0-11.76,18.39,60.5,60.5,0,0,0,11.59,63.46,55.65,55.65,0,0,0,17.24,12.43,48.77,48.77,0,0,0,20.87,4.63,50.21,50.21,0,0,0,25.85-6.79,54.8,54.8,0,0,0,18.55-17.4Z"/><path class="cls-2" d="M2423.86,1751.42q0,4.65-.5,9.61c-.33,3.32-.72,6.74-1.16,10.28H2269.11a66.28,66.28,0,0,0,7.46,15.74,52.25,52.25,0,0,0,11.76,12.92,55.51,55.51,0,0,0,15.74,8.61,56.77,56.77,0,0,0,19.38,3.15,78.66,78.66,0,0,0,25.85-4.47,63.18,63.18,0,0,0,21.54-12.1l30.15,30.16q-19.87,14.91-38.93,21a130.63,130.63,0,0,1-40.26,6.13,103.07,103.07,0,0,1-72.74-29.49,100.52,100.52,0,0,1-21.7-32,100.82,100.82,0,0,1,0-78.53,99.22,99.22,0,0,1,21.87-32A105.61,105.61,0,0,1,2281.7,1659a99.88,99.88,0,0,1,39.77-8,102.82,102.82,0,0,1,38.76,7.46,105.34,105.34,0,0,1,32.81,20.71,96.88,96.88,0,0,1,30.82,72.23Zm-50-18.55a57.42,57.42,0,0,0-20.05-29.33,52.11,52.11,0,0,0-32.64-11.1,51,51,0,0,0-32.14,11.1,57.74,57.74,0,0,0-19.88,29.33Z"/><path class="cls-2" d="M2602.46,1793.84a48.39,48.39,0,0,1-6.64,25.35,60.23,60.23,0,0,1-17.27,18.55,79.17,79.17,0,0,1-23.91,11.27,94.91,94.91,0,0,1-26.24,3.81,99,99,0,0,1-40.35-8.12q-18.43-8.12-32.38-26l28.83-29.16a64.56,64.56,0,0,0,19.88,17.07,49.78,49.78,0,0,0,24.19,6.13q11.26,0,18.72-4.15t7.46-12.42q0-8.61-10.61-14.42t-29.82-11.43a140.55,140.55,0,0,1-21.87-8.45,80.31,80.31,0,0,1-18.89-12.59,59.7,59.7,0,0,1-13.25-17.07,47.54,47.54,0,0,1-5-22.2,48.82,48.82,0,0,1,6.47-25,59.29,59.29,0,0,1,16.94-18.55A80.21,80.21,0,0,1,2502.5,1655a93,93,0,0,1,26.9-4q43.84,0,71.74,33.14l-28.5,28.82a65.44,65.44,0,0,0-18.89-16.23,46.47,46.47,0,0,0-23.19-6,41,41,0,0,0-18.06,4.48,20,20,0,0,0-6.8,5.63,12.53,12.53,0,0,0-2.65,7.79q0,7.62,10.11,13.25t29,11.27a133.55,133.55,0,0,1,23.2,9.28,90.6,90.6,0,0,1,19.22,13.09,58.17,58.17,0,0,1,13.09,16.9A46.48,46.48,0,0,1,2602.46,1793.84Z"/><path class="cls-2" d="M548.49,2073.45c0,34.89-24.76,63.26-59.65,63.26H441.31V2010.19h47.53C523.73,2010.19,548.49,2038.57,548.49,2073.45Zm-9.4,0c0-30-20.43-54.22-50.25-54.22H450.89v108.45h37.95C518.66,2127.68,539.09,2103.46,539.09,2073.45Z"/><path class="cls-2" d="M665.25,2091.89c0,1.45-.18,2.89-.18,4.34H583.19c2.17,20.42,17.71,33.8,38.32,33.8,14.82,0,26-6.87,31.27-16.45l8,4.7c-7.41,12.29-21.51,20.42-39.4,20.42-27.84,0-47.54-19.88-47.54-47.17,0-26.57,19.16-47.17,46.81-47.17C648.08,2044.36,665.25,2067.13,665.25,2091.89Zm-82.06-4.52h72.66c-2-22-17.53-34.34-35.25-34.34C600,2053,585,2067.31,583.19,2087.37Z"/><path class="cls-2" d="M752.73,2113c0,14.82-13,25.66-32.35,25.66-18.08,0-30-8.49-34.34-20.06l7.77-4.52c3.25,9.76,13,15.91,26.57,15.91,12.65,0,23.31-5.61,23.31-17,0-24.58-54.76-10.49-54.76-43,0-14.28,12.29-25.66,30.72-25.66,14.64,0,25.85,7,30.73,18.07l-7.59,4.34c-3.8-9.4-13.2-13.74-23.14-13.74-11.75,0-21.68,6.15-21.68,17C698,2094.24,752.73,2080,752.73,2113Z"/><path class="cls-2" d="M780,2017.24a7.23,7.23,0,1,1,7.23,7.23A7.22,7.22,0,0,1,780,2017.24Zm2.71,29.1h9v90.37h-9Z"/><path class="cls-2" d="M917.93,2046.34v86c0,27.11-20.06,42.47-45,42.47-21.14,0-36.14-8.49-42.65-21.69l8-4.52c4.7,9.58,14.82,17.53,34.7,17.53,22.6,0,36-13.19,36-33.79v-16.63c-7.41,13.91-21.32,22.95-38.86,22.95-25.84,0-46.81-20.42-46.81-47.17s21-47.17,46.81-47.17c17.54,0,31.45,9,38.86,23v-21Zm-9,45.19a38.32,38.32,0,1,0-38.32,38.5A38,38,0,0,0,908.89,2091.53Z"/><path class="cls-2" d="M1031.26,2080.5v56.21H1022V2080.5c0-16.62-9.58-27.47-26.57-27.47-17.71,0-31.63,11.57-31.63,36v47.71h-9v-90.37h9v17.17c6.87-13.37,18.44-19.15,32.35-19.15C1017.7,2044.36,1031.26,2058.63,1031.26,2080.5Z"/><path class="cls-2" d="M1138.8,2041.46v4.88h26.93v8.86H1138.8v81.51h-9.22V2055.2H1114v-8.86h15.54v-4.88c0-22.23,12.47-35.06,36.15-33.25v8.67C1147.3,2015.44,1138.8,2023.93,1138.8,2041.46Z"/><path class="cls-2" d="M1176.58,2091.53c0-26.75,21.14-47.17,47.53-47.17,26.21,0,47.36,20.42,47.36,47.17s-21.15,47.17-47.36,47.17C1197.72,2138.7,1176.58,2118.28,1176.58,2091.53Zm85.67,0c0-21.51-16.63-38.5-38.14-38.5a38.5,38.5,0,0,0,0,77C1245.62,2130,1262.25,2113,1262.25,2091.53Z"/><path class="cls-2" d="M1341.41,2045.08v8.67c-15.54,0-30.18,9.58-30.18,32.72v50.24h-9v-90.37h9v17.72C1317.38,2049.78,1329.13,2045.08,1341.41,2045.08Z"/><path class="cls-2" d="M1520.71,2091.53c0,26.75-21,47.17-46.81,47.17-17.53,0-31.45-9-38.86-22.95v21h-9V2010.19h9v57.12c7.41-13.92,21.33-23,38.86-23C1499.75,2044.36,1520.71,2064.78,1520.71,2091.53Zm-9,0a38.32,38.32,0,1,0-38.31,38.5A38,38,0,0,0,1511.67,2091.53Z"/><path class="cls-2" d="M1625.72,2046.34v90.37h-9v-17.17c-6.87,13.38-18.44,19.16-32.36,19.16-21.5,0-35.06-14.28-35.06-36.15v-56.21h9.22v56.21c0,16.63,9.58,27.48,26.57,27.48,17.71,0,31.63-11.57,31.63-36v-47.72Z"/><path class="cls-2" d="M1723.51,2113c0,14.82-13,25.66-32.36,25.66-18.07,0-30-8.49-34.33-20.06l7.77-4.52c3.25,9.76,13,15.91,26.56,15.91,12.66,0,23.32-5.61,23.32-17,0-24.58-54.76-10.49-54.76-43,0-14.28,12.29-25.66,30.72-25.66,14.64,0,25.85,7,30.73,18.07l-7.59,4.34c-3.8-9.4-13.2-13.74-23.14-13.74-11.75,0-21.69,6.15-21.69,17C1668.74,2094.24,1723.51,2080,1723.51,2113Z"/><path class="cls-2" d="M1750.8,2017.24a7.23,7.23,0,1,1,7.23,7.23A7.22,7.22,0,0,1,1750.8,2017.24Zm2.71,29.1h9v90.37h-9Z"/><path class="cls-2" d="M1875.88,2080.5v56.21h-9.22V2080.5c0-16.62-9.58-27.47-26.57-27.47-17.71,0-31.63,11.57-31.63,36v47.71h-9v-90.37h9v17.17c6.87-13.37,18.44-19.15,32.35-19.15C1862.32,2044.36,1875.88,2058.63,1875.88,2080.5Z"/><path class="cls-2" d="M1995.71,2091.89c0,1.45-.18,2.89-.18,4.34h-81.88c2.17,20.42,17.71,33.8,38.32,33.8,14.82,0,26-6.87,31.27-16.45l8,4.7c-7.41,12.29-21.51,20.42-39.4,20.42-27.84,0-47.54-19.88-47.54-47.17,0-26.57,19.16-47.17,46.82-47.17C1978.54,2044.36,1995.71,2067.13,1995.71,2091.89Zm-82.06-4.52h72.66c-2-22-17.53-34.34-35.24-34.34C1930.46,2053,1915.46,2067.31,1913.65,2087.37Z"/><path class="cls-2" d="M2083.19,2113c0,14.82-13,25.66-32.35,25.66-18.08,0-30-8.49-34.34-20.06l7.77-4.52c3.25,9.76,13,15.91,26.57,15.91,12.65,0,23.31-5.61,23.31-17,0-24.58-54.76-10.49-54.76-43,0-14.28,12.29-25.66,30.72-25.66,14.64,0,25.85,7,30.73,18.07l-7.59,4.34c-3.8-9.4-13.19-13.74-23.14-13.74-11.74,0-21.68,6.15-21.68,17C2028.43,2094.24,2083.19,2080,2083.19,2113Z"/><path class="cls-2" d="M2169.58,2113c0,14.82-13,25.66-32.35,25.66-18.07,0-30-8.49-34.34-20.06l7.77-4.52c3.26,9.76,13,15.91,26.57,15.91,12.66,0,23.32-5.61,23.32-17,0-24.58-54.77-10.49-54.77-43,0-14.28,12.29-25.66,30.73-25.66,14.64,0,25.85,7,30.72,18.07l-7.58,4.34c-3.8-9.4-13.2-13.74-23.14-13.74-11.75,0-21.69,6.15-21.69,17C2114.82,2094.24,2169.58,2080,2169.58,2113Z"/><g class="cls-3"><path class="cls-4" d="M1090.07,733.84c-44.86,28.34,105,484.95,257.58,479.9C1532,1207.63,1644.28,529.82,1604,515.33c-29.55-10.64-126.08,341.54-300.28,346.7C1189.36,865.42,1116.71,717,1090.07,733.84Z"/><path class="cls-5" d="M1050.71,841c-51.73,28.35,121.08,485,297,479.9,212.63-6.1,342.07-683.92,295.64-698.4-34.09-10.64-145.4,341.54-346.28,346.7C1165.2,972.63,1081.42,824.21,1050.71,841Z"/></g><circle class="cls-6" cx="1303.41" cy="643.2" r="94.24"/></svg>